<svg width="1024" height="1024" viewBox="0 0 1024 1024" fill="none" xmlns="http://www.w3.org/2000/svg">
<path d="M619.094 666.94C623.857 666.006 624.688 669.295 625.308 672.761C627.939 687.477 624.593 701.145 617.989 714.234C617.239 715.72 616.455 717.19 615.733 718.69C615.607 718.952 615.716 719.327 615.716 719.768C617.748 721.792 619.823 719.895 621.675 719.476C637.813 715.825 651.088 721.692 658.686 736.044C659.767 738.087 660.097 740.209 657.39 740.822C650.439 742.397 643.701 744.886 636.489 745.387C627.88 745.984 621.354 742.516 616.178 735.899C612.383 731.048 607.354 730.777 603.161 735.063C588.091 750.466 569.305 757.608 548.245 759.322C499.534 763.285 456.77 746.28 416.353 721.383C408.138 716.323 400.169 710.827 392.362 705.154C389.118 702.796 387.179 703.138 384.289 705.694C371.178 717.291 357.607 728.341 342.279 736.953C322.181 748.245 300.297 751.211 277.649 750.373C275.687 750.3 273.69 749.965 273.634 747.61C273.575 745.173 275.831 744.973 277.597 744.695C315.089 738.784 341.812 715.679 366.379 689.129C366.596 688.894 366.691 688.547 366.893 688.155C366.563 685.97 364.542 685.114 363.108 683.85C340.365 663.807 316.804 644.694 294.8 623.814C292.383 621.521 290.787 621.566 288.746 624.085C274.106 642.152 256.645 656.903 236.383 668.318C234.295 669.494 233.438 671.045 233.286 673.516C232.596 684.753 226.949 692.292 216.207 695.608C202.876 699.721 189.243 699.743 175.828 696.26C165.295 693.526 160.673 686.215 161.569 675.405C161.793 672.695 160.96 671.106 158.451 669.917C149.55 665.698 141.019 660.83 133.503 654.38C132.203 653.264 131.173 653.095 129.505 653.768C120.487 657.407 112.156 655.012 105.319 649.08C92.7884 638.207 84.4105 624.613 81.8167 607.926C81.489 605.818 81.0806 603.251 81.9441 601.509C85.9183 593.488 84.0428 585.165 83.5425 577.003C81.2541 539.661 104.251 513.889 140.487 506.718C171.902 500.502 201.028 506.356 227.87 523.327C241.02 531.642 251.768 542.955 262.751 553.895C269.802 560.917 277.118 567.674 284.514 574.742C290.704 567.835 297.348 560.656 305.204 554.727C324.206 540.389 344.962 531.215 369.374 532.674C376.533 533.102 383.534 534.435 390.335 536.716C391.739 537.187 393.31 537.89 392.839 539.843C392.447 541.47 391.224 542.293 389.51 542.312C368.9 542.551 353.621 554.141 338.716 566.36C329.426 573.976 321.078 582.59 313.25 591.71C308.353 597.414 308.269 597.389 313.968 602.095C337.084 621.183 360.044 640.464 383.763 658.809C384.931 659.712 385.949 660.881 388.114 661.159C396.877 649.784 405.678 638.121 414.73 626.657C435.588 600.243 456.336 573.688 483.47 553.163C498.023 542.154 513.724 533.126 531.039 527.109C532.605 526.565 534.194 525.975 535.819 525.747C537.569 525.502 539.802 524.913 540.738 527.011C541.723 529.218 539.649 530.194 538.211 531.266C517.485 546.71 500.194 565.594 483.887 585.467C459.379 615.335 437.214 647.045 412.248 676.551C410.527 678.585 410.132 680.153 412.43 681.939C439.943 703.328 467.414 725.044 500.82 736.579C521.765 743.811 543.616 745.935 565.657 740.72C577.026 738.03 586.382 731.895 594.761 724.029C595.725 723.125 596.955 722.235 596.232 720.671C595.46 719.002 594.582 717.458 592.339 717.279C582.632 716.507 577.557 710.873 575.603 701.619C574.173 694.848 570.764 688.916 566.723 683.328C565.798 682.05 564.219 680.629 565.111 678.874C566.105 676.921 568.314 677.437 570.051 677.41C576.273 677.315 582.299 678.376 588.034 680.885C599.434 685.872 604.448 694.891 602.67 707.295C602.521 708.34 602.439 709.288 603.76 710.164C606.929 708.597 607.635 705.24 608.751 702.303C613.01 691.088 615.986 679.491 618.877 667.421C619.01 667.008 619.094 666.94 619.094 666.94ZM106.281 586.574C107.524 591.303 108.076 596.162 106.886 600.886C105.59 606.026 102.018 609.326 95.8313 609.894C102.067 618.758 105.902 627.664 110.945 635.885C112.311 638.111 113.661 640.82 117.671 639.988C115.361 635.634 113.4 631.596 116.971 627.283C120.345 623.207 125.235 623.934 129.817 623.24C128.897 619.172 126.556 616.328 124.414 613.418C118.395 605.238 112.128 597.215 107.927 587.881C106.856 585.501 105.433 582.585 107.57 580.389C109.427 578.481 112.083 580.062 114.146 580.886C134.325 588.94 144.437 604.342 144.887 626.175C145.098 636.376 148.51 642.247 156.725 646.636C158.776 647.732 160.768 648.973 162.66 650.326C166.23 652.878 169.417 653.815 173.282 650.363C176.106 647.842 179.977 646.609 183.754 645.884C193.637 643.989 203.611 643.958 213.514 645.536C217.861 646.228 221.25 645.789 224.876 642.827C239.116 631.192 252.163 618.425 263.991 604.346C266.696 601.125 266.14 599.247 263.494 596.445C252.174 584.457 241.045 572.288 229.91 560.127C220.195 549.516 209.976 539.402 197.201 532.566C181.151 523.977 163.902 520.993 146.019 524.937C127.946 528.923 117.774 542.303 110.088 557.797C105.762 566.518 103.122 575.808 106.281 586.574ZM198.996 660.195C194.264 660.635 189.43 659.696 184.724 660.964C187.154 673.276 187.081 673.406 175.737 677.38C177.118 683.734 178.796 684.643 183.769 681.206C187.488 678.636 191.502 678.329 195.69 678.778C199.31 679.166 202.885 679.969 206.504 680.382C211.805 680.986 216.822 680.508 221.5 675.349C215.629 675.766 210.584 677.376 206.586 673.607C202.417 669.679 203.5 664.627 204.672 659.479C202.748 659.739 201.29 659.936 198.996 660.195Z" fill="#F8F8F8"/>
<path d="M822.244 652.582C820.747 660.126 821.407 667.565 819.389 674.661C818.664 677.211 818.156 679.867 815.164 681.026C812.038 679.47 811.512 676.34 810.86 673.541C809.505 667.718 808.604 661.804 808.635 655.781C808.645 653.692 809.01 651.367 806.15 649.771C802.383 657.23 799.662 664.98 797.335 672.884C795.17 680.24 792.785 687.52 789.092 694.269C783.089 705.242 773.861 709.354 761.921 706.067C755.572 704.319 750.47 705.569 746.255 710.605C743.798 713.541 741.327 716.467 738.78 719.323C737.658 720.582 736.252 721.787 734.43 720.909C732.401 719.931 732.496 717.884 732.786 716.079C733.271 713.057 734.995 710.524 736.585 708.001C742.523 698.57 744.512 691.154 735.472 682.509C732.782 679.937 733.021 676.365 733.968 673.095C734.531 671.15 734.428 669.613 733.437 667.907C726.429 655.848 727.703 645.688 737.287 635.508C740.764 631.815 744.747 628.907 749.259 626.639C750.672 625.928 752.546 625.691 753.041 623.597C751.797 621.752 749.727 621.711 747.835 621.352C730.505 618.065 723.642 611.031 720.628 593.527C718.997 584.054 718.56 574.384 715.752 565.101C714.831 562.056 713.883 559.052 712.176 556.367C707.562 549.107 704.779 541.194 703.104 532.777C700.908 521.738 707.17 515.576 718.115 518.254C748.228 525.623 770.93 543.408 788.47 568.393C794.603 577.13 799.926 586.36 804.695 595.916C805.528 597.587 805.843 599.869 808.552 600.275C810.943 597.697 810.089 594.492 809.399 591.855C806.888 582.254 805.107 572.236 797.091 565.116C795.588 563.781 794.923 561.819 796.55 560.311C797.916 559.045 799.831 559.647 801.053 560.925C802.532 562.472 803.896 564.191 805.004 566.021C808.379 571.6 810.898 577.565 812.799 583.812C813.343 585.6 813.35 587.825 815.894 589.111C817.949 582.822 819.808 576.655 822.87 570.982C824.773 567.456 826.778 564.005 829.689 561.187C831.123 559.799 833.046 558.869 834.524 560.418C836.068 562.038 835.619 564.254 833.779 565.662C824.155 573.026 822.745 584.141 820.439 594.815C819.909 597.27 820.343 597.742 822.752 601.002C827.65 591.306 832.333 581.772 837.987 572.769C855.197 545.369 878.917 526.697 910.466 518.496C922.863 515.274 929.587 521.309 927.141 533.73C925.829 540.392 924.412 547.227 921.119 553.196C914.275 565.601 910.248 578.7 908.255 592.73C906.111 607.818 897.714 617.951 882.073 620.977C879.975 621.383 877.786 621.761 876.206 623.66C877.012 625.741 879.169 626.144 880.77 627.165C887.067 631.184 892.328 636.132 895.599 642.973C899.331 650.78 899.454 658.372 894.185 665.598C892.498 667.912 891.871 670.383 892.733 673.128C894.437 678.554 892.398 682.938 888.062 685.728C879.552 691.202 879.623 698.269 884.289 706.439C886.191 709.77 888.157 713.133 887.28 717.244C886.871 719.159 885.876 720.677 883.854 721.102C882.03 721.485 880.908 720.143 880.402 718.795C876.742 709.053 868.536 707.806 859.737 707.37C850.227 706.898 843.474 702.222 839.471 693.558C834.561 682.927 832.4 671.405 828.648 660.399C827.629 657.409 826.81 654.311 825.423 651.498C823.986 648.584 822.798 649.546 822.244 652.582ZM747.277 595.402C746.445 595.388 745.61 595.402 744.78 595.354C742.282 595.21 740.085 595.75 738.899 598.204C737.774 600.531 739.145 602.442 740.312 604.207C742.889 608.103 747.117 609.417 751.291 610.576C764.616 614.274 778.375 615.543 791.995 617.563C793.753 617.823 795.832 618.666 797.645 617.367C797.465 616.777 797.447 616.41 797.262 616.176C796.85 615.659 796.398 615.155 795.886 614.741C786.344 607.033 776.208 600.507 763.797 598.403C758.562 597.515 753.356 596.451 747.277 595.402ZM865.716 575.212C865.942 574.767 866.215 574.339 866.386 573.874C867.512 570.807 869.727 567.38 866.658 564.65C863.411 561.759 860.534 564.963 857.762 566.51C856.469 567.232 855.306 568.233 854.202 569.237C842.561 579.83 834.277 592.764 827.927 607.038C827.52 607.952 827.116 608.883 828.402 610.674C843.268 601.757 856.458 591.169 865.716 575.212ZM762.543 564.12C762.342 568.466 764.118 572.183 766.307 575.746C773.89 588.087 784.077 598.022 795.331 606.947C796.578 607.936 798.049 609.544 799.722 608.39C801.748 606.992 800.221 605.045 799.674 603.434C796.053 592.773 790.354 583.244 783.292 574.558C779.618 570.04 775.285 566.072 770.173 563.196C767.877 561.905 765.13 559.87 762.543 564.12ZM849.211 605.739C843.094 609.577 836.977 613.416 830.86 617.255C844.565 616.487 857.821 614.827 871.06 613.038C877.009 612.234 882.889 611.029 888.012 607.617C890.513 605.951 892.315 603.715 891.5 600.506C890.629 597.077 887.691 597.437 885.003 597.349C872.577 596.943 861.001 600.185 849.211 605.739ZM793.728 641.244C795.656 638.565 799.131 636.834 799.161 632.83C789.436 632.545 774.509 641.354 769.132 650.311C767.617 652.836 766.941 655.517 767.252 658.418C767.661 662.241 769.711 663.419 773.037 661.6C774.768 660.652 776.484 659.489 777.836 658.071C782.998 652.656 788.686 647.736 793.728 641.244ZM798.685 654.323C799.786 650.096 802.933 646.338 802.157 640.255C796.596 644.931 793.42 649.91 790.086 654.751C783.959 663.651 780.559 673.618 778.581 684.141C778.206 686.133 778.723 687.94 780.544 688.818C782.763 689.887 783.859 687.965 784.867 686.497C785.894 685 786.727 683.362 787.573 681.748C792.053 673.203 795.098 664.073 798.685 654.323ZM843.539 685.712C844.617 686.855 845.399 688.901 847.469 687.693C849.855 686.3 849.949 683.835 849.457 681.494C847.746 673.363 845.57 665.329 841.6 657.994C838.341 651.971 834.49 646.28 828.475 642.02C832.625 656.7 836.186 671.471 843.539 685.712ZM855.028 644.487C848.414 637.656 840.126 634.308 831.04 631.7C830.854 633.216 830.662 633.641 830.798 633.839C837.976 644.282 846.657 653.357 856.558 661.193C859.589 663.592 861.827 661.955 861.599 657.818C861.321 652.769 858.398 648.878 855.028 644.487ZM736.064 577.121C733 581.735 736.805 584.042 739.628 585.818C746.839 590.355 755.225 590.859 763.466 591.459C764.794 591.556 766.499 591.261 767.184 589.589C766.97 587.571 765.755 586.22 764.318 585.055C759.093 580.82 753.151 578.013 746.726 576.094C743.233 575.05 739.899 574.974 736.064 577.121ZM873.219 634.273C860.723 627.96 847.325 625.647 833.896 625.284C840.539 628.6 847.556 631.97 854.447 635.58C861.152 639.093 868.261 641.151 875.702 642.246C877.597 642.525 879.326 642.525 880.382 640.502C879.243 637.345 876.342 636.203 873.219 634.273ZM762.249 640.671C774.075 638.143 783.254 629.919 794.442 626.015C780.833 625.685 767.982 628.388 755.943 634.608C752.961 636.149 750.296 637.991 749.173 641.994C753.578 643.201 757.471 641.427 762.249 640.671ZM887.621 577.618C878.475 579.937 869.797 582.994 863.593 592.569C873.55 592.565 882.068 592.044 890.029 588.291C892.629 587.065 895.018 584.968 894.458 581.703C893.926 578.602 891.106 577.904 887.621 577.618ZM876.274 572.44C884.056 575.513 900.009 565.861 900.572 557.669C900.819 554.075 898.635 553.692 896.077 554.992C890.328 557.913 884.359 560.533 879.414 564.78C877.338 566.562 875.009 568.497 876.274 572.44ZM754.324 569.546C750.374 561.236 742.35 558.54 734.622 555.771C731.761 554.746 731.041 557.518 731.604 559.893C733.21 566.67 747.531 573.125 754.324 569.546ZM759.678 646.809C754.308 648.153 749.028 649.625 745.96 654.902C744.548 657.331 743.492 659.723 745.869 662.149C748.157 664.484 750.405 663.233 752.649 662.004C758.365 658.874 761.052 653.348 764.07 648.198C763.003 646.583 761.708 646.518 759.678 646.809ZM878.859 650.611C874.434 648.219 870.087 645.511 863.807 646.733C866.056 651.869 869.308 655.271 872.791 658.473C877.648 662.937 881.338 663.884 883.557 661.375C885.762 658.881 884.301 655.2 878.859 650.611ZM899.251 540.532C898.524 537.988 896.716 538.288 894.906 538.995C892.287 540.018 889.58 540.936 887.164 542.336C881.995 545.328 876.53 548.089 873.36 554.271C878.208 554.52 882.116 553.104 885.884 551.597C891.264 549.446 896.689 547.13 899.251 540.532ZM738.612 548.922C744.349 551.94 749.929 555.54 757.937 554.448C751.412 546.282 743.605 542.177 734.954 539.403C733.906 539.067 732.567 538.916 731.836 540.218C731.135 541.47 731.919 542.462 732.592 543.403C734.061 545.457 735.926 547.113 738.612 548.922ZM764.205 679.671C763.724 680.903 763.15 682.108 762.782 683.372C762.089 685.751 763.025 687.694 764.996 688.908C767.334 690.348 769.403 689.019 770.501 687.139C773.993 681.161 776.018 674.645 777.254 667.558C771.12 669.068 769.38 670.684 764.205 679.671ZM864.319 686.491C865.788 676.524 859.826 667.374 852.055 668.338C852.71 674.651 854.546 680.612 857.53 686.151C858.972 688.826 861.32 689.947 864.319 686.491ZM758.122 665.409C754.128 667.005 751.432 669.63 751.362 674.208C751.321 676.903 751.335 679.808 754.787 680.422C757.204 680.853 761.819 674.421 762.569 669.786C762.968 667.319 762.988 664.938 759.363 665.208C759.198 665.22 759.034 665.247 758.122 665.409ZM873.158 666.376C871.097 664.576 868.8 663.606 865.7 664.204C866.184 669.115 866.851 673.758 869.782 677.732C870.743 679.036 871.79 680.647 873.731 680.081C875.665 679.517 876.469 677.837 876.687 675.904C877.077 672.438 876.306 669.351 873.158 666.376Z" fill="#F8F8F8"/>
<path d="M802.168 404C802.233 415.165 802.313 425.83 802.337 436.495C802.359 445.985 803.118 455.427 804.396 464.814C805.375 472.007 808.97 477.568 815.68 480.841C817.442 481.7 819.73 482.305 819.039 485.007C818.333 487.765 816.052 487.568 813.796 487.559C796.967 487.497 780.139 487.488 763.31 487.512C761.095 487.516 758.814 487.845 758.012 485.052C757.222 482.298 759.489 481.552 761.233 480.809C768.088 477.886 769.488 471.72 769.519 465.52C769.697 429.695 769.546 393.868 769.495 358.042C769.494 357.234 769.365 356.425 769.167 354.116C764.57 364.908 760.436 374.399 756.473 383.96C745.702 409.944 735.003 435.958 724.273 461.959C724.02 462.574 723.764 463.192 723.458 463.781C722.562 465.507 722.097 467.999 719.704 467.923C717.355 467.849 716.854 465.383 716.076 463.605C703.935 435.85 691.839 408.076 679.702 380.319C677.457 375.185 675.075 370.109 672.695 364.873C670.217 366.324 670.417 368.248 670.374 370.004C669.683 397.968 668.949 425.931 668.42 453.898C668.338 458.182 668.914 462.544 669.735 466.764C670.936 472.936 674.325 477.751 679.999 480.79C681.734 481.72 683.814 482.479 682.938 485.208C682.146 487.67 680.419 488.536 677.951 488.359C676.625 488.264 675.277 488.424 673.955 488.297C662.659 487.218 651.332 487.36 640.007 487.359C637.837 487.359 635.604 487.535 634.806 484.682C634.02 481.87 635.852 480.937 637.794 479.747C643.521 476.239 645.543 470.61 646.707 464.314C648.383 455.248 647.467 446.065 648.427 436.945C649.54 426.382 649.156 415.67 649.68 405.035C650.788 382.565 650.89 360.085 650.654 337.599C650.574 329.924 648.559 323.111 641.95 318.414C640.097 317.097 639.255 315.392 639.953 313.248C640.65 311.112 642.674 311.69 644.231 311.684C657.395 311.634 670.561 311.761 683.724 311.58C687.446 311.529 689.285 312.791 690.706 316.325C701.508 343.19 712.529 369.968 723.536 396.75C724.395 398.838 724.849 401.277 727.191 402.576C729.449 401.586 729.942 399.388 730.706 397.433C740.936 371.236 751.265 345.075 761.252 318.786C763.255 313.513 765.829 311.312 771.757 311.481C783.896 311.828 796.073 312.167 808.218 311.195C809.851 311.064 811.244 311.334 811.9 313.024C812.529 314.64 812.018 316.091 810.659 316.989C802.24 322.548 801.652 331.391 801.437 340.038C800.911 361.193 801.588 382.349 802.168 404Z" fill="#F8F8F8"/>
<path d="M458.83 400.115C451.585 389.21 444.539 378.605 437.294 367.703C435.856 369.948 436.369 371.814 436.366 373.564C436.327 394.556 436.152 415.55 436.442 436.538C436.561 445.153 437.263 453.82 438.533 462.34C439.619 469.632 443.398 475.781 450.008 479.667C452.19 480.95 453.943 482.202 453.078 485.088C452.197 488.024 449.713 487.351 447.674 487.359C435.179 487.41 422.684 487.365 410.189 487.382C407.628 487.385 405.185 487.491 404.111 484.345C403.082 481.331 405.523 480.672 407.115 479.401C410.82 476.445 412.647 472.42 413.665 467.94C415.847 458.326 416.375 448.473 416.509 438.728C416.908 409.578 416.715 380.419 416.609 351.264C416.59 346.126 416.117 340.957 415.423 335.861C414.41 328.416 411.037 322.298 404.277 318.429C402.32 317.309 400.493 315.957 401.249 313.33C402.123 310.285 404.584 311.383 406.66 311.493C415.637 311.969 424.63 311.633 433.619 312.332C439.057 312.755 442.551 315.263 445.399 319.51C465.988 350.216 486.608 380.9 507.232 411.583C509.99 415.686 512.825 419.737 516.282 424.769C516.797 418.225 517.545 412.824 517.588 407.418C517.74 388.593 517.763 369.765 517.58 350.941C517.522 344.984 517.157 338.961 515.604 333.152C513.99 327.119 510.421 322.43 505.087 319.12C502.88 317.751 499.733 316.763 500.944 313.287C502.13 309.88 505.245 311.7 507.488 311.682C520.649 311.576 533.811 311.599 546.972 311.692C548.777 311.705 551.273 310.747 552.07 313.472C552.816 316.022 550.631 316.912 548.98 317.97C542.552 322.088 539.662 328.137 539.31 335.577C537.061 383.187 538.967 430.825 538.347 478.446C538.325 480.111 538.37 481.778 538.336 483.444C538.236 488.239 536.573 489.671 531.874 488.972C522.723 487.609 516.053 482.378 510.656 475.228C494.091 453.286 479.184 430.197 463.768 407.46C462.18 405.118 460.608 402.764 458.83 400.115Z" fill="#F8F8F8"/>
<path d="M144.439 263.517C141.368 270.008 140.61 276.665 140.415 283.281C139.002 331.248 139.226 379.231 139.431 427.211C139.479 438.365 140.06 449.516 140.338 460.67C140.427 464.251 141.679 467.011 145.519 467.446C164.301 469.577 183.045 469.91 201.381 464.429C217.096 459.73 228.001 449.143 235.802 435.047C236.124 434.464 236.386 433.847 236.727 433.275C238.043 431.063 238.944 427.266 242.033 428.351C245.423 429.543 243.126 432.933 242.65 435.323C239.249 452.411 235.761 469.48 232.303 486.556C230.991 493.033 229.384 494.16 223.084 493.05C208.828 490.536 194.411 489.35 179.998 488.483C162.881 487.454 145.725 487.193 128.562 487.309C114.223 487.406 99.9975 488.494 85.8547 490.736C83.6602 491.084 81.7978 491.272 80.9648 488.793C80.1385 486.333 81.7048 485.043 83.651 484.159C97.6335 477.809 101.117 465.764 101.694 451.815C103.313 412.68 102.908 373.525 102.452 334.391C102.232 315.608 102.284 296.77 100.698 277.998C99.6216 265.248 93.1644 256.741 81.6926 251.518C78.6484 250.132 73.2488 249.507 75.0972 244.534C76.5522 240.619 80.8769 243.199 83.974 243.349C104.422 244.335 124.862 245.646 145.343 244.026C149.322 243.711 153.33 243.671 157.324 243.689C159.158 243.697 161.574 242.909 162.187 245.81C162.827 248.836 160.754 249.734 158.483 250.792C152.644 253.512 147.55 257.179 144.439 263.517Z" fill="#F8F8F8"/>
<path d="M879.602 329.409C875.279 329.601 874.269 331.835 874.295 335.433C874.411 351.263 874.43 367.096 874.265 382.926C874.226 386.665 875.538 387.97 879.191 387.841C884.849 387.642 890.518 387.756 896.183 387.777C906.162 387.815 912.285 382.608 915.741 373.61C916.497 371.641 916.369 368.705 920.008 369.335C923.454 369.931 924.283 372.353 924.195 375.156C923.835 386.635 923.315 398.108 922.841 409.583C922.691 413.239 922.508 416.893 922.325 420.548C922.244 422.185 922.516 424.115 920.247 424.503C918.144 424.863 916.28 424.399 915.205 422.252C913.866 419.576 912.662 416.811 911.085 414.281C907.873 409.125 903.253 406.266 897.011 406.269C890.846 406.271 884.68 406.208 878.516 406.089C875.633 406.033 874.287 407.114 874.299 410.186C874.371 427.849 874.349 445.514 874.297 463.177C874.288 466.142 875.571 468.451 878.42 468.446C894.025 468.421 909.82 469.251 923.786 460.08C931.571 454.967 936.914 447.915 940.822 439.62C941.816 437.511 942.598 435.066 945.782 435.899C948.919 436.72 948.675 439.229 948.355 441.553C946.344 456.183 944.294 470.808 942.168 485.422C941.757 488.247 939.429 488.441 937.16 488.352C926.02 487.914 914.871 487.61 903.742 486.96C886.426 485.947 869.115 486.314 851.799 486.74C844.305 486.924 836.812 487.142 829.319 487.372C827.227 487.436 825.715 486.747 825.328 484.518C824.956 482.373 826.471 481.554 828.074 480.933C835.988 477.866 838.214 471.062 838.567 463.69C840.537 422.566 839.552 381.406 839.537 340.261C839.534 331.431 837.457 322.994 829.048 317.769C827.211 316.628 826.089 314.826 826.985 312.661C827.948 310.33 830.275 310.689 832.22 310.813C859.847 312.57 887.515 311.292 915.157 311.924C922.316 312.088 929.488 311.856 936.648 311.622C940.03 311.511 941.078 312.782 941.476 316.201C942.696 326.681 942.083 337.171 942.284 347.653C942.309 348.957 942.043 350.305 941.692 351.571C941.186 353.398 940.314 355.023 938.094 355.193C935.815 355.367 934.867 353.771 934.125 352.033C932.148 347.405 929.568 343.179 926.326 339.306C919.26 330.867 909.379 330.048 899.534 329.455C893.059 329.066 886.54 329.387 879.602 329.409Z" fill="#F8F8F8"/>
<path d="M277.865 422.035C286.629 393.193 296.138 364.986 303.004 335.997C304.834 328.27 302.304 322.654 296.075 318.323C294.27 317.068 292.067 315.993 292.933 313.32C293.791 310.669 296.294 311.699 298.11 311.688C310.942 311.609 323.782 311.895 336.604 311.54C341.745 311.397 343.999 313.252 345.326 318.073C352.862 345.464 360.568 372.809 368.368 400.127C374.387 421.208 380.673 442.214 385.684 463.569C387.44 471.052 392.25 476.121 398.702 479.858C400.762 481.051 402.986 482.171 402.132 485.157C401.292 488.094 398.719 487.35 396.695 487.355C379.363 487.404 362.031 487.396 344.699 487.334C342.858 487.327 340.491 488.032 339.831 485.165C339.168 482.287 340.683 481.117 343.169 480.049C348.428 477.789 350.66 473.245 349.495 466.873C347.461 455.737 343.831 445.007 340.657 434.165C339.828 431.333 337.866 430.275 334.99 430.365C323.339 430.732 311.686 431.048 300.032 431.336C297.264 431.404 295.925 432.741 295.22 435.404C292.461 445.833 288.959 456.074 287.661 466.86C286.964 472.652 288.282 477.553 293.737 480.42C296.618 481.934 296.939 483.904 295.886 486.605C294.657 487.834 293.079 487.38 291.636 487.392C277.809 487.51 263.98 487.569 250.153 487.698C248.151 487.717 246.393 487.437 245.853 485.226C245.312 483.008 246.105 481.405 248.339 480.448C257.165 476.668 261.689 469.305 264.643 460.656C268.998 447.905 273.374 435.16 277.865 422.035ZM329.668 391.633C326.412 378.553 323.155 365.472 319.693 351.566C317.795 355.262 302.87 406.25 302.405 409.573C302.018 412.335 303.071 413.643 305.898 413.632C314.372 413.6 322.845 413.632 331.318 413.615C333.917 413.609 334.853 412.521 334.116 409.809C332.554 404.058 331.226 398.242 329.668 391.633Z" fill="#F8F8F8"/>
<path d="M599 311.687C604.997 311.682 610.495 311.643 615.991 311.683C617.603 311.695 619.503 311.416 620.069 313.623C620.517 315.368 620.089 316.875 618.657 318.103C612.851 323.079 611.73 329.756 611.272 336.971C609.573 363.765 610.493 390.579 610.42 417.382C610.376 433.508 610.897 449.639 612.276 465.73C612.817 472.035 615.442 476.748 620.965 479.937C622.836 481.017 625.745 481.706 624.918 484.87C624.109 487.965 621.356 487.366 619.106 487.347C602.785 487.207 586.465 486.638 570.142 487.299C567.631 487.401 565.219 487.576 564.295 484.16C563.414 480.902 566.01 480.556 567.625 479.496C573.284 475.779 576.279 470.892 576.797 463.887C578.58 439.77 577.704 415.625 578.015 391.497C578.253 373.03 577.727 354.554 577.726 336.081C577.726 328.68 574.915 322.852 569.11 318.43C567.161 316.945 565.094 315.328 566.122 312.754C567.082 310.349 569.652 311.652 571.515 311.643C580.509 311.598 589.505 311.66 599 311.687Z" fill="#F8F8F8"/>
<path d="M572.742 253.785C575.672 250.824 578.334 248.095 582.489 247.06C584.39 250.412 581.827 253.352 582.151 256.373C582.508 259.714 581.092 264.283 585.694 265.134C589.782 265.89 592.199 262.287 593.765 258.868C597.161 251.454 595.634 244.242 592.341 237.23C590.08 232.415 587.293 227.829 585.836 222.665C582.751 211.736 585.473 201.882 591.935 192.985C596.407 186.826 601.515 181.192 608.362 177.699C610.029 179.133 609.246 180.242 608.701 181.154C599.683 196.237 603.479 209.316 614.63 221.512C621.388 228.903 627.432 236.751 629.896 246.888C635.378 269.435 622.893 290.385 600.457 295.803C580.27 300.678 563.817 285.868 566.656 265.392C567.276 260.917 569.495 257.29 572.742 253.785Z" fill="#F8F8F8"/>
<path d="M498.405 660.404C504.293 682.062 516.706 697.238 550.93 696.76C551.123 700.635 548.066 702.234 545.608 703.832C523.349 718.306 489.04 716.029 472.703 687.435C461.326 667.523 460.723 647.152 474.608 627.864C485.718 612.43 506.985 604.341 523.384 608.61C525.16 609.072 527.007 609.306 527.871 611.738C504.383 619.408 497.271 637.207 498.405 660.404Z" fill="#F8F8F8"/>
<path d="M668.909 543.978C671.643 545.918 674.24 547.473 676.458 549.455C685.246 557.31 686.156 561.555 681.031 572.132C676.585 581.308 678.582 590.647 679.766 600.009C680.519 605.961 681.099 611.944 679.38 617.805C677.647 623.712 673.931 627.672 667.516 628.358C664.376 628.694 663.07 630.565 662.068 633.33C657.191 646.798 648.905 651.174 634.448 648.586C626.312 647.13 618.875 644.379 611.805 638.993C614.598 636.912 617.396 637.785 619.834 637.319C632.601 634.88 640.684 626.314 647.97 616.498C652.004 611.064 654.829 605.287 656.109 598.536C656.902 594.353 656.169 590.622 655.073 586.821C654.309 584.171 653.94 581.576 654.909 579C660.168 565.022 657.24 551.933 650.736 539.204C650.51 538.761 650.261 538.322 650.112 537.853C650.019 537.558 650.095 537.21 650.095 535.944C657.643 535.543 662.521 541.27 668.909 543.978Z" fill="#F8F8F8"/>
<path d="M638.208 698.223C650.621 686.124 664.651 677.029 679.792 669.737C676.88 669.373 676.809 669.237 673.421 671.014C662.479 676.753 652.282 683.615 642.897 691.668C639.616 694.483 636.318 697.277 632.984 700.027C631.892 700.928 630.911 702.647 629.213 701.747C627.408 700.79 627.943 698.952 628.146 697.279C629.795 683.702 636.204 672.848 646.715 664.226C664.317 649.788 683.818 648.747 704.505 655.864C705.731 656.285 707.03 656.804 707.624 658.175C707.604 658.497 707.708 658.955 707.537 659.112C698.793 667.144 693.452 677.305 688.108 687.773C680.698 702.285 666.954 707.827 651.468 709.25C644.37 709.902 637.235 709.323 630.165 706.891C631.563 702.687 635.38 701.149 638.208 698.223Z" fill="#F8F8F8"/>
<path d="M566.105 588.691C569.869 595.329 571.895 602.035 572.646 609.26C573.125 613.87 575.38 618.069 577.419 622.319C576.793 622.711 576.327 623.238 576.021 623.158C566.605 620.689 557.412 617.673 551.748 608.946C548.223 603.514 545.209 597.789 540.706 592.99C537.238 589.294 536.637 584.584 538.389 579.902C543.826 565.369 551.338 551.812 558.79 538.269C561.702 532.978 565.578 532.063 571.175 534.123C577.742 536.54 584.178 538.807 591.407 538.934C595.988 539.014 600.027 542.003 604.567 545.591C597.611 548.74 592.181 552.905 587.927 558.471C587.607 558.889 586.749 559.024 586.126 559.065C572.088 559.984 564.15 568.981 565.178 582.91C565.312 584.719 565.7 586.51 566.105 588.691Z" fill="#F8F8F8"/>
<path d="M618.972 667.045C614.208 669.121 609.269 669.075 604.89 666.805C596.909 662.667 588.27 661.737 579.708 661.607C569.541 661.452 562.144 657.045 556.339 649.393C548.507 639.07 542.205 628 541.673 614.565C541.607 612.913 541.591 611.249 542.387 609.679C543.823 606.847 545.55 605.538 547.842 608.77C555.675 619.814 567.128 623.544 579.601 627.452C588.7 630.303 597.89 634.959 606.534 639.47C614.155 643.448 620.573 649.865 629.288 652.348C632.409 653.237 630.969 655.378 629.756 657.04C626.966 660.864 622.904 663.307 619.267 666.67C619.095 666.94 619.011 667.008 618.972 667.045Z" fill="#F8F8F8"/>
<path d="M639.426 588.4C641.121 585.552 641.526 582.443 643.587 580.207C650.763 583.705 654.867 594.36 650.686 602.664C643.026 617.877 633.089 631.121 614.096 633.001C595.826 634.809 579.598 624.702 577.127 606.809C602.526 616.831 624.154 613.922 639.426 588.4Z" fill="#F8F8F8"/>
<path d="M625.357 599.418C620.958 603.135 616.363 605.745 611.056 606.916C605.36 608.174 600.18 607.253 595.773 603.13C592.355 599.933 589.218 596.544 586.91 592.415C583.17 585.725 582.627 578.959 585.771 571.87C588.013 566.815 590.851 562.144 594.203 557.784C596.271 555.095 598.888 553.026 602.294 552.277C606.499 551.352 610.695 550.246 614.957 549.747C622.603 548.853 630.338 553.554 633.983 560.871C639.962 572.873 637.821 586.752 628.491 596.397C627.566 597.353 626.58 598.25 625.357 599.418ZM619.786 594.464C625.644 590.198 628.779 584.462 627.387 577.269C625.98 569.993 619.684 567.886 613.511 566.031C613.034 565.888 612.573 565.675 612.088 565.579C601.084 563.4 592.394 572.688 595.237 583.581C598.279 595.237 607.104 599.4 619.786 594.464Z" fill="#F8F8F8"/>
<path d="M603.998 519.671C624.605 518.956 639.108 528.408 649.111 545.263C654.073 553.624 653.546 565.617 648.562 577.293C643.986 575.812 642.614 572.047 641.725 567.944C640.083 560.362 636.694 553.825 630.233 549.259C625.067 545.607 619.528 543.151 612.951 545.034C610.887 545.624 609.149 545.152 607.49 543.588C602.117 538.528 595.903 535.428 588.305 535.113C585.868 535.012 582.855 534.825 581.098 531.324C587.953 526.249 594.885 521.372 603.998 519.671Z" fill="#F8F8F8"/>
<path d="M886.347 269.476C893.423 263.147 894.183 255.373 891.596 246C898.439 248.238 899.889 252.946 900.581 257.484C901.777 265.326 900.225 272.692 894.434 278.675C891.664 281.537 888.738 284.278 886.242 287.365C883.876 290.292 881.979 293.598 879.903 296.697C874.48 294.428 872.832 290.052 874.801 284.015C876.813 277.845 881.722 274.011 886.347 269.476Z" fill="#F8F8F8"/>
<path d="M584.697 597.282C586.917 600.166 588.926 602.754 591.248 605.746C587.604 606.311 585.091 605.099 582.765 603.533C573.94 597.59 568.529 581.926 571.76 571.895C573.61 566.15 578.943 562.453 584.566 563.666C578.604 574.773 576.642 585.973 584.697 597.282Z" fill="#F8F8F8"/>
<path d="M604.702 589.652C600.641 585.827 599.371 581.284 599.485 576.309C599.568 572.711 601.435 570.618 605.157 570.221C605.631 573.251 600.051 573.727 602.762 577.091C604.138 578.798 606.193 579.147 608.178 578.04C611.362 576.263 610.682 573.419 609.761 570.282C614.781 570.574 618.696 572.071 620.603 576.8C622.433 581.341 620.986 585.513 617.868 588.697C614.183 592.459 609.553 592.18 604.702 589.652Z" fill="#F8F8F8"/>
<path d="M186.423 249.094C185.938 252.489 189.349 253.115 188.977 255.96C170.65 259.607 149.15 262.825 149.15 262.825V264.75L189.481 271.558C187.994 273.831 190.15 274.607 184.65 278.107C187.368 279.586 189.898 277.16 192.225 276.356C198.354 274.239 204.453 272.018 210.642 270.09C214.199 268.982 217.845 267.702 222.098 268.885C216.055 278.356 206.587 283.396 198.399 288.853C198.085 291.547 200.643 290.786 200.752 292.305C195.884 297.892 189.721 302.59 188.156 311.323C195.954 308.225 199.684 301.358 206.034 298.153C207.93 298.559 207.249 301.519 210.301 301.306C215.267 292.18 219.053 281.377 230.052 275.948C231.551 288.867 224.909 299.844 222.903 311.733C226.394 312.162 226.524 309.062 228.662 308.6C230.575 321.215 231.187 333.945 234.091 346.266L235.991 346.18L239.842 308.649C241.793 308.01 242.177 310.93 244.222 309.811C244.984 298.697 237.157 288.452 239.397 276.14C249.239 282.703 253.064 292.351 257.457 301.883L261.067 299.117C267.762 303.434 273.064 309.387 282.141 312.315C278.399 303.525 271.806 298.62 267.273 292.488C268.364 290.83 270.661 292.039 271.334 289.117C267.215 286.495 262.123 284.86 257.954 281.726C253.58 278.437 249.717 274.748 246.688 270.481C248.129 268.214 249.578 268.96 251.06 269.153C259.714 270.278 267.884 272.923 275.806 276.528C278.37 277.694 281.055 279.405 284.126 277.88C284.084 274.965 280.473 274.671 280.479 271.401L326.971 264.75L327 262.825C311.381 259.967 295.324 259.427 279.974 255.803C280.025 252.394 283.688 252.167 283.716 248.599C277.07 248.624 271.824 252.511 266.049 254.339C259.85 256.301 253.659 257.833 246.534 257.915C252.46 248.305 261.47 243.239 270.079 238.998C270.203 236.303 267.532 236.924 267.884 235.154C273.316 229.441 277.466 223.014 281.107 216.167C272.538 218.194 267.532 225.415 260.549 229.449C259.097 228.098 260.62 225.657 257.449 224.863C255.057 229.228 254.365 234.629 251.346 238.957C248.341 243.266 245.462 247.517 239.898 250.679C238.53 237.977 244.687 227.599 246.12 216.454C243.745 215.781 243.415 218.606 241.052 218.41C240.085 204.847 236.951 191.532 234.986 178.003L233.132 178L228.45 220.556C226.042 220.083 226.059 216.882 222.883 216.462C223.828 227.847 230.886 238.081 228.563 250.156C218.919 244.152 215.05 234.094 209.164 225.529C207.365 227.446 209.746 229.207 208.325 230.607C202.07 225.384 195.406 220.837 187.734 217.785C190.621 226.379 197.708 231.253 203.949 237.098C201.94 237.388 199.647 235.412 197.718 238.755C206.61 244.058 217.007 247.638 222.07 257.22C208.838 260.952 198.408 251.674 186.423 249.094Z" fill="#F8F8F8"/>
</svg>
