<svg xmlns="http://www.w3.org/2000/svg" viewBox="0 0 32 32" fill="none">
  <defs>
    <linearGradient id="bg" x1="0" y1="0" x2="1" y2="1">
      <stop offset="0%" stop-color="#b473f9"/>
      <stop offset="100%" stop-color="#d2a9ff"/>
    </linearGradient>
  </defs>

  <!-- 배경 원 -->
  <circle cx="16" cy="16" r="15" fill="url(#bg)"/>

  <!-- 나비 (center 16, 15) -->
  <!-- 위 왼쪽 날개 -->
  <path d="M16,15 C14,10 7.5,10 8,13 C8.5,15.5 13,16.5 16,15Z" fill="white" opacity="0.95"/>
  <!-- 위 오른쪽 날개 -->
  <path d="M16,15 C18,10 24.5,10 24,13 C23.5,15.5 19,16.5 16,15Z" fill="white" opacity="0.95"/>
  <!-- 아래 왼쪽 날개 -->
  <path d="M16,15 C14,16.5 10,20.5 11.5,21.5 C13,22.5 14.5,19 16,15Z" fill="white" opacity="0.5"/>
  <!-- 아래 오른쪽 날개 -->
  <path d="M16,15 C18,16.5 22,20.5 20.5,21.5 C19,22.5 17.5,19 16,15Z" fill="white" opacity="0.5"/>
  <!-- 몸통 -->
  <ellipse cx="16" cy="15.5" rx="1" ry="3" fill="#7530c8"/>
</svg>
